<svg xmlns="http://www.w3.org/2000/svg" xmlns:xlink="http://www.w3.org/1999/xlink" width="500" zoomAndPan="magnify" viewBox="0 0 375 374.999991" height="500" preserveAspectRatio="xMidYMid meet" version="1.2"><defs><clipPath id="872b7afd7a"><path d="M 104.222656 195 L 270.722656 195 L 270.722656 281.335938 L 104.222656 281.335938 Z M 104.222656 195 "/></clipPath><clipPath id="12dee21993"><path d="M 142 93.835938 L 233 93.835938 L 233 185 L 142 185 Z M 142 93.835938 "/></clipPath></defs><g id="3537669f3c"><rect x="0" width="375" y="0" height="374.999991" style="fill:#ffffff;fill-opacity:1;stroke:none;"/><rect x="0" width="375" y="0" height="374.999991" style="fill:#2b2b2b;fill-opacity:1;stroke:none;"/><path style=" stroke:none;fill-rule:nonzero;fill:#ffffff;fill-opacity:1;" d="M 268.585938 279.070312 L 106.441406 279.070312 C 106.441406 279.070312 108.542969 198.796875 187.515625 197.34375 C 187.515625 197.34375 268.585938 197.269531 268.585938 279.070312 "/><g clip-rule="nonzero" clip-path="url(#872b7afd7a)"><path style=" stroke:none;fill-rule:nonzero;fill:#2b2b2b;fill-opacity:1;" d="M 268.585938 279.070312 L 268.585938 277.050781 L 106.441406 277.050781 L 106.441406 279.070312 L 108.460938 279.128906 L 108.460938 279.085938 C 108.484375 278.035156 109.324219 258.226562 119.640625 238.75 C 124.796875 229.003906 132.277344 219.359375 143.183594 212.046875 C 154.089844 204.734375 168.449219 199.71875 187.546875 199.363281 L 187.515625 197.34375 L 187.515625 199.363281 C 187.515625 199.363281 187.820312 199.363281 188.402344 199.386719 C 190.59375 199.460938 196.628906 199.816406 204.414062 201.472656 C 216.105469 203.96875 231.699219 209.414062 244.269531 221.136719 C 250.554688 227.011719 256.113281 234.433594 260.113281 243.917969 C 264.121094 253.402344 266.566406 264.957031 266.566406 279.070312 L 268.585938 279.070312 L 268.585938 277.050781 L 268.585938 279.070312 L 270.605469 279.070312 C 270.613281 258.332031 265.460938 242.578125 257.648438 230.742188 C 251.789062 221.871094 244.472656 215.207031 236.8125 210.230469 C 225.316406 202.765625 213.066406 199.054688 203.664062 197.199219 C 194.261719 195.339844 187.691406 195.324219 187.515625 195.324219 L 187.472656 195.324219 C 167.398438 195.6875 152.023438 201.101562 140.390625 209.058594 C 131.664062 215.027344 125.046875 222.40625 120.046875 230.089844 C 112.550781 241.617188 108.664062 253.808594 106.628906 263.132812 C 104.589844 272.460938 104.421875 278.925781 104.421875 279.023438 C 104.40625 279.570312 104.605469 280.097656 104.996094 280.484375 C 105.375 280.871094 105.890625 281.089844 106.441406 281.089844 L 268.585938 281.089844 C 269.121094 281.089844 269.636719 280.878906 270.015625 280.5 C 270.398438 280.128906 270.605469 279.605469 270.605469 279.070312 L 268.585938 279.070312 "/></g><path style=" stroke:none;fill-rule:nonzero;fill:#ffffff;fill-opacity:1;" d="M 144.347656 139.039062 C 144.347656 115.195312 163.671875 95.867188 187.515625 95.867188 C 211.355469 95.867188 230.679688 115.195312 230.679688 139.039062 C 230.679688 162.878906 211.355469 182.210938 187.515625 182.210938 C 163.671875 182.210938 144.347656 162.878906 144.347656 139.039062 "/><g clip-rule="nonzero" clip-path="url(#12dee21993)"><path style=" stroke:none;fill-rule:nonzero;fill:#2b2b2b;fill-opacity:1;" d="M 144.347656 139.039062 L 146.367188 139.039062 C 146.367188 127.664062 150.964844 117.394531 158.414062 109.9375 C 165.871094 102.488281 176.140625 97.882812 187.515625 97.882812 C 198.890625 97.882812 209.15625 102.488281 216.613281 109.9375 C 224.0625 117.394531 228.660156 127.664062 228.660156 139.039062 C 228.660156 150.40625 224.0625 160.679688 216.613281 168.128906 C 209.15625 175.585938 198.882812 180.183594 187.515625 180.191406 C 176.140625 180.183594 165.871094 175.585938 158.421875 168.128906 C 150.964844 160.679688 146.367188 150.40625 146.367188 139.039062 L 142.328125 139.039062 C 142.328125 163.992188 162.550781 184.222656 187.515625 184.230469 C 212.476562 184.222656 232.699219 163.992188 232.699219 139.039062 C 232.699219 114.074219 212.476562 93.847656 187.515625 93.847656 C 162.550781 93.847656 142.328125 114.074219 142.328125 139.039062 L 144.347656 139.039062 "/></g></g></svg>