<svg xmlns="http://www.w3.org/2000/svg" xmlns:xlink="http://www.w3.org/1999/xlink" width="500" zoomAndPan="magnify" viewBox="0 0 375 374.999991" height="500" preserveAspectRatio="xMidYMid meet" version="1.2"><defs><clipPath id="e887a96cd1"><path d="M 187.5 0 C 83.945312 0 0 83.945312 0 187.5 C 0 291.054688 83.945312 375 187.5 375 C 291.054688 375 375 291.054688 375 187.5 C 375 83.945312 291.054688 0 187.5 0 Z M 187.5 0 "/></clipPath><clipPath id="aff78257a6"><path d="M 35.550781 53.691406 L 285 53.691406 L 285 292 L 35.550781 292 Z M 35.550781 53.691406 "/></clipPath><clipPath id="f132e16d1a"><path d="M 276 167 L 338.957031 167 L 338.957031 262 L 276 262 Z M 276 167 "/></clipPath><clipPath id="d47c3ee80f"><path d="M 78.914062 283.867188 L 176.519531 283.867188 L 176.519531 302.214844 L 78.914062 302.214844 Z M 78.914062 283.867188 "/></clipPath><clipPath id="f9586190fc"><path d="M 174.472656 283.867188 L 275.242188 283.867188 L 275.242188 302.214844 L 174.472656 302.214844 Z M 174.472656 283.867188 "/></clipPath><clipPath id="e2e53dc668"><path d="M 146.859375 283.867188 L 244.464844 283.867188 L 244.464844 302.214844 L 146.859375 302.214844 Z M 146.859375 283.867188 "/></clipPath></defs><g id="f5c852a9b1"><g clip-rule="nonzero" clip-path="url(#e887a96cd1)"><rect x="0" width="375" y="0" height="374.999991" style="fill:#ffffff;fill-opacity:1;stroke:none;"/></g><g clip-rule="nonzero" clip-path="url(#aff78257a6)"><path style=" stroke:none;fill-rule:nonzero;fill:#172a3a;fill-opacity:1;" d="M 216.441406 53.691406 C 182.664062 53.691406 154.640625 78.273438 149.265625 110.519531 L 140.910156 112.105469 C 131.089844 95.515625 113.019531 84.386719 92.335938 84.386719 C 61.171875 84.386719 35.921875 109.636719 35.921875 140.800781 C 35.921875 167.300781 54.179688 189.515625 78.808594 195.578125 L 78.808594 201.878906 L 67.382812 201.878906 L 67.332031 201.367188 L 53.804688 196.34375 L 44.324219 196.34375 L 59.285156 227.5 L 64.820312 226.011719 L 67.894531 220.992188 L 78.808594 220.992188 L 78.808594 291.445312 L 274.898438 291.445312 L 274.898438 174.3125 L 259.835938 174.3125 C 274.945312 161.816406 284.582031 142.929688 284.582031 121.789062 C 284.582031 84.167969 254.058594 53.691406 216.433594 53.691406 Z M 157.257812 155.507812 C 161.351562 162.6875 166.703125 169.074219 173.039062 174.3125 L 137.734375 174.3125 C 141.429688 169.3125 144.300781 163.679688 146.191406 157.609375 Z M 255.230469 267.777344 C 258.625 267.777344 261.378906 270.527344 261.378906 273.925781 C 261.378906 277.320312 258.625 280.074219 255.230469 280.074219 C 251.832031 280.074219 249.078125 277.320312 249.078125 273.925781 C 249.078125 270.527344 251.832031 267.777344 255.230469 267.777344 Z M 255.230469 267.777344 "/></g><path style=" stroke:none;fill-rule:nonzero;fill:#ffffff;fill-opacity:1;" d="M 215.457031 85.78125 C 196.441406 85.78125 181.023438 101.199219 181.023438 120.214844 C 181.023438 139.230469 196.441406 154.648438 215.457031 154.648438 C 234.472656 154.648438 249.890625 139.230469 249.890625 120.214844 C 249.890625 101.199219 234.472656 85.78125 215.457031 85.78125 Z M 212.167969 95.945312 C 215.25 95.945312 217.757812 98.421875 217.757812 101.503906 C 217.757812 104.585938 215.25 107.09375 212.167969 107.09375 C 209.085938 107.09375 206.578125 104.585938 206.578125 101.503906 C 206.578125 98.421875 209.085938 95.945312 212.167969 95.945312 Z M 229.414062 106.40625 C 232.496094 106.40625 235.003906 108.914062 235.003906 111.996094 C 235.003906 115.078125 232.496094 117.585938 229.414062 117.585938 C 226.332031 117.585938 223.824219 115.078125 223.824219 111.996094 C 223.824219 108.914062 226.332031 106.40625 229.414062 106.40625 Z M 198.988281 110.800781 C 202.070312 110.800781 204.546875 113.308594 204.546875 116.390625 C 204.546875 119.472656 202.070312 121.980469 198.988281 121.980469 C 195.90625 121.980469 193.398438 119.46875 193.398438 116.390625 C 193.398438 113.308594 195.90625 110.800781 198.988281 110.800781 Z M 227.382812 126.042969 C 230.464844 126.042969 232.972656 128.523438 232.972656 131.601562 C 232.972656 134.683594 230.464844 137.191406 227.382812 137.191406 C 224.300781 137.191406 221.792969 134.683594 221.792969 131.601562 C 221.792969 128.523438 224.300781 126.042969 227.382812 126.042969 Z M 206.757812 129.421875 C 209.839844 129.421875 212.347656 131.898438 212.347656 134.980469 C 212.347656 138.0625 209.839844 140.570312 206.757812 140.570312 C 203.675781 140.570312 201.171875 138.0625 201.171875 134.980469 C 201.171875 131.898438 203.675781 129.421875 206.757812 129.421875 Z M 206.757812 129.421875 "/><path style=" stroke:none;fill-rule:nonzero;fill:#ffffff;fill-opacity:1;" d="M 92.480469 110.375 C 77.085938 110.375 64.605469 122.855469 64.605469 138.25 C 64.605469 153.644531 77.085938 166.125 92.480469 166.125 C 107.875 166.125 120.355469 153.644531 120.355469 138.25 C 120.355469 122.855469 107.875 110.375 92.480469 110.375 Z M 89.820312 118.605469 C 92.3125 118.605469 94.34375 120.609375 94.34375 123.105469 C 94.34375 125.597656 92.3125 127.628906 89.820312 127.628906 C 87.324219 127.628906 85.292969 125.597656 85.292969 123.105469 C 85.292969 120.609375 87.324219 118.605469 89.820312 118.605469 Z M 103.78125 127.074219 C 106.273438 127.074219 108.304688 129.101562 108.304688 131.597656 C 108.304688 134.09375 106.273438 136.121094 103.78125 136.121094 C 101.285156 136.121094 99.253906 134.09375 99.253906 131.597656 C 99.253906 129.101562 101.285156 127.074219 103.78125 127.074219 Z M 79.148438 130.628906 C 81.640625 130.628906 83.648438 132.660156 83.648438 135.15625 C 83.648438 137.648438 81.640625 139.679688 79.148438 139.679688 C 76.652344 139.679688 74.621094 137.648438 74.621094 135.15625 C 74.621094 132.660156 76.652344 130.628906 79.148438 130.628906 Z M 102.132812 142.96875 C 104.628906 142.96875 106.660156 144.976562 106.660156 147.46875 C 106.660156 149.964844 104.628906 151.996094 102.132812 151.996094 C 99.640625 151.996094 97.609375 149.964844 97.609375 147.46875 C 97.609375 144.976562 99.640625 142.96875 102.132812 142.96875 Z M 85.4375 145.703125 C 87.933594 145.703125 89.964844 147.710938 89.964844 150.203125 C 89.964844 152.699219 87.933594 154.730469 85.4375 154.730469 C 82.945312 154.730469 80.914062 152.699219 80.914062 150.203125 C 80.914062 147.710938 82.945312 145.703125 85.4375 145.703125 Z M 85.4375 145.703125 "/><g clip-rule="nonzero" clip-path="url(#f132e16d1a)"><path style=" stroke:none;fill-rule:nonzero;fill:#172a3a;fill-opacity:1;" d="M 338.582031 167.09375 L 303.992188 188.050781 L 276.9375 188.050781 L 276.9375 240.265625 L 303.992188 240.265625 L 338.582031 261.222656 Z M 338.582031 167.09375 "/></g><g clip-rule="nonzero" clip-path="url(#d47c3ee80f)"><path style=" stroke:none;fill-rule:nonzero;fill:#172a3a;fill-opacity:1;" d="M 78.914062 283.867188 L 176.535156 283.867188 L 176.535156 302.214844 L 78.914062 302.214844 Z M 78.914062 283.867188 "/></g><g clip-rule="nonzero" clip-path="url(#f9586190fc)"><path style=" stroke:none;fill-rule:nonzero;fill:#172a3a;fill-opacity:1;" d="M 174.472656 283.867188 L 275.246094 283.867188 L 275.246094 302.214844 L 174.472656 302.214844 Z M 174.472656 283.867188 "/></g><g clip-rule="nonzero" clip-path="url(#e2e53dc668)"><path style=" stroke:none;fill-rule:nonzero;fill:#172a3a;fill-opacity:1;" d="M 146.859375 283.867188 L 244.480469 283.867188 L 244.480469 302.214844 L 146.859375 302.214844 Z M 146.859375 283.867188 "/></g></g></svg>