<svg id="visual" viewBox="0 0 960 540" width="960" height="540" xmlns="http://www.w3.org/2000/svg" xmlns:xlink="http://www.w3.org/1999/xlink" version="1.1"><rect x="0" y="0" width="960" height="540" fill="#3a506b"></rect><path d="M0 344L107 336L213 312L320 291L427 302L533 349L640 314L747 321L853 305L960 357L960 541L853 541L747 541L640 541L533 541L427 541L320 541L213 541L107 541L0 541Z" fill="#6fffe9"></path><path d="M0 330L107 356L213 328L320 331L427 362L533 391L640 365L747 326L853 395L960 336L960 541L853 541L747 541L640 541L533 541L427 541L320 541L213 541L107 541L0 541Z" fill="#68efdf"></path><path d="M0 386L107 413L213 410L320 398L427 385L533 405L640 423L747 418L853 405L960 431L960 541L853 541L747 541L640 541L533 541L427 541L320 541L213 541L107 541L0 541Z" fill="#63dfd5"></path><path d="M0 425L107 434L213 440L320 469L427 467L533 431L640 438L747 437L853 467L960 459L960 541L853 541L747 541L640 541L533 541L427 541L320 541L213 541L107 541L0 541Z" fill="#5fcfca"></path><path d="M0 469L107 497L213 467L320 480L427 475L533 483L640 464L747 483L853 479L960 471L960 541L853 541L747 541L640 541L533 541L427 541L320 541L213 541L107 541L0 541Z" fill="#5bc0be"></path></svg>