<svg id="visual" viewBox="0 0 1920 1080" width="1920" height="1080" xmlns="http://www.w3.org/2000/svg" xmlns:xlink="http://www.w3.org/1999/xlink" version="1.1"><rect x="0" y="0" width="1920" height="1080" fill="#1c2541"></rect><path d="M0 645L274 665L549 692L823 781L1097 792L1371 717L1646 735L1920 692L1920 1081L1646 1081L1371 1081L1097 1081L823 1081L549 1081L274 1081L0 1081Z" fill="#6fffe9"></path><path d="M0 843L274 740L549 818L823 810L1097 760L1371 859L1646 764L1920 754L1920 1081L1646 1081L1371 1081L1097 1081L823 1081L549 1081L274 1081L0 1081Z" fill="#68efdf"></path><path d="M0 914L274 829L549 855L823 897L1097 896L1371 880L1646 846L1920 920L1920 1081L1646 1081L1371 1081L1097 1081L823 1081L549 1081L274 1081L0 1081Z" fill="#63dfd5"></path><path d="M0 900L274 955L549 926L823 869L1097 948L1371 885L1646 869L1920 949L1920 1081L1646 1081L1371 1081L1097 1081L823 1081L549 1081L274 1081L0 1081Z" fill="#5fcfca"></path><path d="M0 980L274 1004L549 1010L823 970L1097 1022L1371 946L1646 1016L1920 1033L1920 1081L1646 1081L1371 1081L1097 1081L823 1081L549 1081L274 1081L0 1081Z" fill="#5bc0be"></path></svg>