<svg xmlns="http://www.w3.org/2000/svg" xmlns:xlink="http://www.w3.org/1999/xlink" width="500" zoomAndPan="magnify" viewBox="0 0 375 160.499995" height="214" preserveAspectRatio="xMidYMid meet" version="1.2"><defs><clipPath id="2b7ea18273"><path d="M 0.582031 0 L 137 0 L 137 130 L 0.582031 130 Z M 0.582031 0 "/></clipPath><clipPath id="a92d3d5823"><path d="M 132 61 L 166.566406 61 L 166.566406 114 L 132 114 Z M 132 61 "/></clipPath><clipPath id="363d880ad8"><path d="M 172.78125 29.363281 L 372.753906 29.363281 L 372.753906 109.601562 L 172.78125 109.601562 Z M 172.78125 29.363281 "/></clipPath><clipPath id="a73bb176fb"><path d="M 172.78125 64.621094 L 172.78125 109.601562 L 372.570312 109.601562 L 372.570312 29.363281 Z M 172.78125 64.621094 "/></clipPath><clipPath id="c8f76db9e5"><path d="M 76.375 125.578125 L 131.355469 125.578125 L 131.355469 135.589844 L 76.375 135.589844 Z M 76.375 125.578125 "/></clipPath><clipPath id="2596135b3b"><path d="M 61.3125 125.578125 L 114.5625 125.578125 L 114.5625 135.589844 L 61.3125 135.589844 Z M 61.3125 125.578125 "/></clipPath><clipPath id="3e68746e60"><path d="M 24.242188 125.578125 L 77.492188 125.578125 L 77.492188 135.589844 L 24.242188 135.589844 Z M 24.242188 125.578125 "/></clipPath></defs><g id="cc4c016182"><g clip-rule="nonzero" clip-path="url(#2b7ea18273)"><path style=" stroke:none;fill-rule:nonzero;fill:#ffffff;fill-opacity:1;" d="M 99.429688 0 C 80.972656 0 65.660156 13.433594 62.722656 31.050781 L 58.15625 31.917969 C 52.789062 22.855469 42.914062 16.773438 31.613281 16.773438 C 14.582031 16.773438 0.785156 30.570312 0.785156 47.597656 C 0.785156 62.078125 10.761719 74.21875 24.222656 77.53125 L 24.222656 80.976562 L 17.976562 80.976562 L 17.949219 80.695312 L 10.558594 77.953125 L 5.378906 77.953125 L 13.554688 94.976562 L 16.578125 94.164062 L 18.257812 91.417969 L 24.222656 91.417969 L 24.222656 129.917969 L 131.375 129.917969 L 131.375 65.910156 L 123.140625 65.910156 C 131.398438 59.082031 136.664062 48.761719 136.664062 37.210938 C 136.664062 16.652344 119.984375 0 99.425781 0 Z M 67.089844 55.636719 C 69.324219 59.558594 72.25 63.050781 75.714844 65.914062 L 56.421875 65.914062 C 58.441406 63.179688 60.007812 60.101562 61.042969 56.785156 Z M 120.625 116.984375 C 122.480469 116.984375 123.984375 118.488281 123.984375 120.34375 C 123.984375 122.199219 122.480469 123.703125 120.625 123.703125 C 118.769531 123.703125 117.265625 122.199219 117.265625 120.34375 C 117.265625 118.488281 118.769531 116.984375 120.625 116.984375 Z M 120.625 116.984375 "/></g><path style=" stroke:none;fill-rule:nonzero;fill:#1c2541;fill-opacity:1;" d="M 98.890625 17.535156 C 88.5 17.535156 80.074219 25.957031 80.074219 36.351562 C 80.074219 46.742188 88.5 55.167969 98.890625 55.167969 C 109.28125 55.167969 117.707031 46.742188 117.707031 36.351562 C 117.707031 25.957031 109.28125 17.535156 98.890625 17.535156 Z M 97.09375 23.089844 C 98.777344 23.089844 100.148438 24.441406 100.148438 26.125 C 100.148438 27.808594 98.777344 29.179688 97.09375 29.179688 C 95.410156 29.179688 94.039062 27.808594 94.039062 26.125 C 94.039062 24.441406 95.410156 23.089844 97.09375 23.089844 Z M 106.519531 28.804688 C 108.203125 28.804688 109.574219 30.175781 109.574219 31.859375 C 109.574219 33.542969 108.203125 34.914062 106.519531 34.914062 C 104.835938 34.914062 103.464844 33.542969 103.464844 31.859375 C 103.464844 30.175781 104.835938 28.804688 106.519531 28.804688 Z M 89.890625 31.207031 C 91.574219 31.207031 92.929688 32.574219 92.929688 34.261719 C 92.929688 35.945312 91.574219 37.3125 89.890625 37.3125 C 88.207031 37.3125 86.835938 35.945312 86.835938 34.261719 C 86.835938 32.574219 88.207031 31.207031 89.890625 31.207031 Z M 105.410156 39.535156 C 107.09375 39.535156 108.464844 40.890625 108.464844 42.574219 C 108.464844 44.257812 107.09375 45.628906 105.410156 45.628906 C 103.726562 45.628906 102.355469 44.257812 102.355469 42.574219 C 102.355469 40.890625 103.726562 39.535156 105.410156 39.535156 Z M 94.140625 41.382812 C 95.824219 41.382812 97.191406 42.734375 97.191406 44.417969 C 97.191406 46.101562 95.824219 47.472656 94.140625 47.472656 C 92.453125 47.472656 91.085938 46.101562 91.085938 44.417969 C 91.085938 42.734375 92.453125 41.382812 94.140625 41.382812 Z M 94.140625 41.382812 "/><path style=" stroke:none;fill-rule:nonzero;fill:#1c2541;fill-opacity:1;" d="M 31.691406 30.972656 C 23.28125 30.972656 16.460938 37.792969 16.460938 46.207031 C 16.460938 54.617188 23.28125 61.4375 31.691406 61.4375 C 40.105469 61.4375 46.921875 54.617188 46.921875 46.207031 C 46.921875 37.792969 40.105469 30.972656 31.691406 30.972656 Z M 30.238281 35.46875 C 31.601562 35.46875 32.710938 36.566406 32.710938 37.929688 C 32.710938 39.292969 31.601562 40.402344 30.238281 40.402344 C 28.875 40.402344 27.765625 39.292969 27.765625 37.929688 C 27.765625 36.566406 28.875 35.46875 30.238281 35.46875 Z M 37.867188 40.097656 C 39.230469 40.097656 40.339844 41.207031 40.339844 42.570312 C 40.339844 43.933594 39.230469 45.042969 37.867188 45.042969 C 36.503906 45.042969 35.394531 43.933594 35.394531 42.570312 C 35.394531 41.207031 36.503906 40.097656 37.867188 40.097656 Z M 24.40625 42.042969 C 25.769531 42.042969 26.867188 43.152344 26.867188 44.515625 C 26.867188 45.878906 25.769531 46.988281 24.40625 46.988281 C 23.042969 46.988281 21.933594 45.878906 21.933594 44.515625 C 21.933594 43.152344 23.042969 42.042969 24.40625 42.042969 Z M 36.96875 48.785156 C 38.328125 48.785156 39.441406 49.882812 39.441406 51.246094 C 39.441406 52.605469 38.332031 53.714844 36.96875 53.714844 C 35.605469 53.714844 34.496094 52.609375 34.496094 51.246094 C 34.496094 49.882812 35.605469 48.785156 36.96875 48.785156 Z M 27.84375 50.277344 C 29.207031 50.277344 30.316406 51.375 30.316406 52.738281 C 30.316406 54.101562 29.207031 55.210938 27.84375 55.210938 C 26.480469 55.210938 25.371094 54.101562 25.371094 52.738281 C 25.371094 51.375 26.480469 50.277344 27.84375 50.277344 Z M 27.84375 50.277344 "/><g clip-rule="nonzero" clip-path="url(#a92d3d5823)"><path style=" stroke:none;fill-rule:nonzero;fill:#ffffff;fill-opacity:1;" d="M 166.171875 61.96875 L 147.273438 73.417969 L 132.488281 73.417969 L 132.488281 101.949219 L 147.273438 101.949219 L 166.171875 113.402344 Z M 166.171875 61.96875 "/></g><g clip-rule="nonzero" clip-path="url(#363d880ad8)"><g clip-rule="nonzero" clip-path="url(#a73bb176fb)"><path style=" stroke:none;fill-rule:nonzero;fill:#ffffff;fill-opacity:1;" d="M 172.78125 29.363281 L 372.441406 29.363281 L 372.441406 109.601562 L 172.78125 109.601562 Z M 172.78125 29.363281 "/></g></g><g clip-rule="nonzero" clip-path="url(#c8f76db9e5)"><path style=" stroke:none;fill-rule:nonzero;fill:#ffffff;fill-opacity:1;" d="M 76.375 125.578125 L 131.359375 125.578125 L 131.359375 135.589844 L 76.375 135.589844 Z M 76.375 125.578125 "/></g><g clip-rule="nonzero" clip-path="url(#2596135b3b)"><path style=" stroke:none;fill-rule:nonzero;fill:#ffffff;fill-opacity:1;" d="M 61.3125 125.578125 L 114.570312 125.578125 L 114.570312 135.589844 L 61.3125 135.589844 Z M 61.3125 125.578125 "/></g><g style="fill:#1c2541;fill-opacity:1;"><g transform="translate(174.947828, 109.944002)"><path style="stroke:none" d="M 17.296875 -9.484375 C 17.296875 -6.128906 16.695312 -3.644531 15.5 -2.03125 C 14.300781 -0.414062 12.414062 0.390625 9.84375 0.390625 C 7.269531 0.390625 5.347656 -0.46875 4.078125 -2.1875 C 2.804688 -3.90625 2.171875 -6.378906 2.171875 -9.609375 L 2.171875 -24.765625 C 2.171875 -29.941406 3.53125 -33.175781 6.25 -34.46875 C 7.25 -34.945312 8.460938 -35.1875 9.890625 -35.1875 C 14.773438 -35.1875 17.21875 -32.101562 17.21875 -25.9375 L 17.21875 -21.15625 L 12.09375 -21.15625 L 12.09375 -25.59375 C 12.09375 -27.382812 11.941406 -28.664062 11.640625 -29.4375 C 11.335938 -30.207031 10.742188 -30.59375 9.859375 -30.59375 C 8.984375 -30.59375 8.375 -30.1875 8.03125 -29.375 C 7.6875 -28.5625 7.515625 -27.3125 7.515625 -25.625 L 7.515625 -9.375 C 7.515625 -7.5 7.675781 -6.160156 8 -5.359375 C 8.332031 -4.554688 8.929688 -4.15625 9.796875 -4.15625 C 10.671875 -4.15625 11.269531 -4.5625 11.59375 -5.375 C 11.925781 -6.195312 12.09375 -7.546875 12.09375 -9.421875 L 12.09375 -14.40625 L 17.296875 -14.40625 Z M 17.296875 -9.484375 "/></g></g><g style="fill:#ffffff;fill-opacity:1;"><g transform="translate(193.559848, 153.837887)"><path style="stroke:none" d="M 14.484375 -7.9375 C 14.484375 -5.125 13.976562 -3.039062 12.96875 -1.6875 C 11.96875 -0.34375 10.390625 0.328125 8.234375 0.328125 C 6.085938 0.328125 4.476562 -0.390625 3.40625 -1.828125 C 2.34375 -3.265625 1.8125 -5.335938 1.8125 -8.046875 L 1.8125 -20.734375 C 1.8125 -25.066406 2.953125 -27.773438 5.234375 -28.859375 C 6.066406 -29.253906 7.082031 -29.453125 8.28125 -29.453125 C 12.363281 -29.453125 14.40625 -26.875 14.40625 -21.71875 L 14.40625 -17.703125 L 10.125 -17.703125 L 10.125 -21.4375 C 10.125 -22.9375 9.992188 -24.003906 9.734375 -24.640625 C 9.484375 -25.285156 8.988281 -25.609375 8.25 -25.609375 C 7.519531 -25.609375 7.007812 -25.265625 6.71875 -24.578125 C 6.425781 -23.898438 6.28125 -22.859375 6.28125 -21.453125 L 6.28125 -7.84375 C 6.28125 -6.28125 6.414062 -5.160156 6.6875 -4.484375 C 6.96875 -3.804688 7.472656 -3.46875 8.203125 -3.46875 C 8.929688 -3.46875 9.429688 -3.8125 9.703125 -4.5 C 9.984375 -5.1875 10.125 -6.316406 10.125 -7.890625 L 10.125 -12.0625 L 14.484375 -12.0625 Z M 14.484375 -7.9375 "/></g></g><g style="fill:#ffffff;fill-opacity:1;"><g transform="translate(221.935708, 153.837887)"><path style="stroke:none" d="M 2.34375 0 L 2.34375 -29.125 L 6.78125 -29.125 L 6.78125 0 Z M 2.34375 0 "/></g></g><g style="fill:#ffffff;fill-opacity:1;"><g transform="translate(243.543389, 153.837887)"><path style="stroke:none" d="M 2.1875 0 L 2.1875 -29.125 L 5.65625 -29.125 L 11.828125 -11.65625 L 11.515625 -19.59375 L 11.515625 -29.125 L 15.5 -29.125 L 15.5 0 L 12.359375 0 L 6.03125 -18.09375 L 6.265625 -10.4375 L 6.265625 0 Z M 2.1875 0 "/></g></g><g style="fill:#ffffff;fill-opacity:1;"><g transform="translate(273.706443, 153.837887)"><path style="stroke:none" d="M 2.1875 0 L 2.1875 -29.125 L 11.953125 -29.125 L 11.953125 -25.296875 L 6.625 -25.296875 L 6.625 -16.828125 L 11.6875 -16.828125 L 11.6875 -13.09375 L 6.625 -13.09375 L 6.625 -3.828125 L 12.140625 -3.828125 L 12.140625 0 Z M 2.1875 0 "/></g></g><g style="fill:#ffffff;fill-opacity:1;"><g transform="translate(299.682823, 153.837887)"><path style="stroke:none" d="M 2.1875 0 L 2.1875 -29.125 L 7.6875 -29.125 L 11.828125 -7.84375 L 15.71875 -29.125 L 21.265625 -29.125 L 21.265625 0 L 17.3125 0 L 17.3125 -10.859375 L 17.46875 -20.8125 L 13.546875 -0.125 L 10.03125 -0.125 L 5.9375 -20.8125 L 6.109375 -10.859375 L 6.109375 0 Z M 2.1875 0 "/></g></g><g style="fill:#ffffff;fill-opacity:1;"><g transform="translate(335.621159, 153.837887)"><path style="stroke:none" d="M 10 -8.75 L 8.046875 -23.375 L 7.96875 -23.375 L 6.1875 -8.75 Z M 0.859375 0 L 5.015625 -29.125 L 10.875 -29.125 L 15.296875 0 L 11.15625 0 L 10.453125 -5.203125 L 5.765625 -5.203125 L 5.125 0 Z M 0.859375 0 "/></g></g><g style="fill:#1c2541;fill-opacity:1;"><g transform="translate(195.151179, 110.861714)"><path style="stroke:none" d="M 13.375 -11.703125 L 10.75 -31.28125 L 10.671875 -31.28125 L 8.28125 -11.703125 Z M 1.15625 0 L 6.703125 -38.953125 L 14.546875 -38.953125 L 20.453125 0 L 14.921875 0 L 13.984375 -6.953125 L 7.703125 -6.953125 L 6.859375 0 Z M 1.15625 0 "/></g></g><g style="fill:#1c2541;fill-opacity:1;"><g transform="translate(216.292089, 109.355786)"><path style="stroke:none" d="M 3.234375 0 L 3.234375 -43.125 L 13.140625 -43.125 C 16.484375 -43.125 18.769531 -42.109375 20 -40.078125 C 21.238281 -38.046875 21.890625 -35.007812 21.953125 -30.96875 L 21.953125 -30.0625 C 21.953125 -25.78125 21.34375 -22.53125 20.125 -20.3125 C 18.914062 -18.101562 16.660156 -17 13.359375 -17 L 9.796875 -17 L 9.796875 0 Z M 9.796875 -22.421875 L 12.0625 -22.421875 C 13.445312 -22.421875 14.347656 -22.957031 14.765625 -24.03125 C 15.179688 -25.101562 15.390625 -27.140625 15.390625 -30.140625 L 15.390625 -30.96875 C 15.367188 -33.519531 15.140625 -35.34375 14.703125 -36.4375 C 14.273438 -37.53125 13.410156 -38.078125 12.109375 -38.078125 L 9.796875 -38.078125 Z M 9.796875 -22.421875 "/></g></g><g style="fill:#1c2541;fill-opacity:1;"><g transform="translate(238.223277, 110.381198)"><path style="stroke:none" d="M 7.9375 0 L 7.9375 -18.34375 L 0.234375 -45.921875 L 6.921875 -45.921875 L 11.453125 -28.75 L 11.5625 -28.75 L 15.609375 -45.921875 L 22.25 -45.921875 L 14.921875 -18.34375 L 14.921875 0 Z M 7.9375 0 "/></g></g><g style="fill:#1c2541;fill-opacity:1;"><g transform="translate(258.693891, 111.293646)"><path style="stroke:none" d="M 25.1875 -37.234375 C 25.1875 -31.847656 23.726562 -28.535156 20.8125 -27.296875 C 24.375 -26.097656 26.15625 -22.160156 26.15625 -15.484375 L 26.15625 -14.203125 C 26.125 -9.171875 25.25 -5.546875 23.53125 -3.328125 C 21.8125 -1.109375 19.003906 0 15.109375 0 L 4.046875 0 L 4.046875 -50.09375 L 14.890625 -50.09375 C 18.628906 -50.09375 21.273438 -49.222656 22.828125 -47.484375 C 24.378906 -45.753906 25.164062 -42.847656 25.1875 -38.765625 Z M 11.671875 -5.921875 L 14.375 -5.921875 C 15.894531 -5.921875 16.957031 -6.441406 17.5625 -7.484375 C 18.164062 -8.523438 18.46875 -10.394531 18.46875 -13.09375 L 18.46875 -17.140625 C 18.46875 -19.679688 18.222656 -21.476562 17.734375 -22.53125 C 17.242188 -23.582031 16.296875 -24.109375 14.890625 -24.109375 L 11.671875 -24.109375 Z M 11.671875 -29.828125 L 14.484375 -29.828125 C 15.796875 -29.828125 16.65625 -30.242188 17.0625 -31.078125 C 17.46875 -31.921875 17.671875 -33.640625 17.671875 -36.234375 L 17.671875 -39.25 C 17.660156 -41.1875 17.394531 -42.484375 16.875 -43.140625 C 16.363281 -43.796875 15.484375 -44.125 14.234375 -44.125 L 11.671875 -44.125 Z M 11.671875 -29.828125 "/></g></g><g style="fill:#1c2541;fill-opacity:1;"><g transform="translate(339.747731, 110.41924)"><path style="stroke:none" d="M 21.5 -18.828125 L 17.296875 -50.28125 L 17.15625 -50.28125 L 13.3125 -18.828125 Z M 1.84375 0 L 10.78125 -62.625 L 23.375 -62.625 L 32.875 0 L 23.984375 0 L 22.484375 -11.171875 L 12.390625 -11.171875 L 11.03125 0 Z M 1.84375 0 "/></g></g><g style="fill:#1c2541;fill-opacity:1;"><g transform="translate(283.695883, 109.78772)"><path style="stroke:none" d="M 18.625 -16.3125 L 14.984375 -43.578125 L 14.859375 -43.578125 L 11.53125 -16.3125 Z M 1.609375 0 L 9.34375 -54.28125 L 20.265625 -54.28125 L 28.5 0 L 20.78125 0 L 19.484375 -9.6875 L 10.734375 -9.6875 L 9.5625 0 Z M 1.609375 0 "/></g></g><g style="fill:#1c2541;fill-opacity:1;"><g transform="translate(310.242616, 110.29333)"><path style="stroke:none" d="M 16.140625 -27.46875 L 13.28125 -27.59375 L 13.28125 0 L 4.390625 0 L 4.390625 -58.453125 L 19.09375 -58.453125 C 22.144531 -58.453125 24.425781 -57.835938 25.9375 -56.609375 C 27.445312 -55.378906 28.4375 -53.660156 28.90625 -51.453125 C 29.382812 -49.253906 29.625 -46.378906 29.625 -42.828125 C 29.625 -39.273438 29.242188 -36.566406 28.484375 -34.703125 C 27.734375 -32.847656 26.34375 -31.597656 24.3125 -30.953125 C 26.320312 -30.597656 27.722656 -29.234375 28.515625 -26.859375 C 29.316406 -24.492188 29.71875 -19.5625 29.71875 -12.0625 C 29.71875 -4.570312 29.832031 -0.550781 30.0625 0 L 21.15625 0 C 20.9375 -0.445312 20.828125 -7.429688 20.828125 -20.953125 C 20.828125 -23.546875 20.515625 -25.269531 19.890625 -26.125 C 19.273438 -26.976562 18.023438 -27.425781 16.140625 -27.46875 Z M 13.3125 -34.5 L 16.875 -34.5 C 18 -34.5 18.832031 -34.753906 19.375 -35.265625 C 19.914062 -35.773438 20.289062 -36.648438 20.5 -37.890625 C 20.71875 -39.128906 20.828125 -41.023438 20.828125 -43.578125 L 20.828125 -43.9375 C 20.828125 -47.101562 20.5625 -49.171875 20.03125 -50.140625 C 19.5 -51.117188 18.269531 -51.609375 16.34375 -51.609375 L 13.3125 -51.609375 Z M 13.3125 -34.5 "/></g></g><g clip-rule="nonzero" clip-path="url(#3e68746e60)"><path style=" stroke:none;fill-rule:nonzero;fill:#ffffff;fill-opacity:1;" d="M 24.242188 125.578125 L 77.5 125.578125 L 77.5 135.589844 L 24.242188 135.589844 Z M 24.242188 125.578125 "/></g></g></svg>